<?xml version="1.0" standalone="no"?>
<!DOCTYPE svg PUBLIC "-//W3C//DTD SVG 20010904//EN"
 "http://www.w3.org/TR/2001/REC-SVG-20010904/DTD/svg10.dtd">
<svg version="1.0" xmlns="http://www.w3.org/2000/svg"
 width="512.000000pt" height="512.000000pt" viewBox="0 0 512.000000 512.000000"
 preserveAspectRatio="xMidYMid meet">

<g transform="translate(0.000000,512.000000) scale(0.100000,-0.100000)"
fill="#000000" stroke="none">
<path d="M128 4910 c-79 -43 -121 -141 -97 -227 22 -81 67 -113 314 -227 270
-125 260 -119 273 -153 7 -15 131 -550 277 -1188 202 -884 272 -1174 295
-1223 39 -83 152 -198 232 -235 125 -59 66 -57 1493 -57 1439 0 1371 -2 1497
61 36 18 89 58 125 94 110 111 106 96 342 1115 115 498 213 926 216 951 26
183 -98 410 -276 504 -130 68 -44 65 -1715 65 -1103 0 -1520 -3 -1545 -11 -94
-32 -143 -106 -137 -206 4 -69 20 -97 82 -147 l38 -31 1537 -5 c1467 -5 1538
-6 1565 -23 15 -10 34 -35 43 -54 17 -43 42 78 -212 -1017 -187 -802 -194
-830 -224 -860 l-31 -31 -1290 -3 c-1415 -2 -1342 -5 -1374 57 -9 17 -136 554
-282 1193 -201 876 -273 1178 -295 1225 -35 73 -110 159 -177 201 -26 17 -151
79 -277 138 -206 96 -237 108 -295 111 -51 2 -73 -1 -102 -17z"/>
<path d="M1960 1199 c-219 -22 -416 -219 -438 -438 -12 -112 2 -195 47 -286
89 -179 257 -285 455 -285 140 0 251 45 352 142 103 98 154 219 154 363 0 214
-128 400 -330 479 -58 23 -157 33 -240 25z m155 -336 c30 -17 72 -65 84 -96 6
-16 11 -48 11 -72 0 -109 -76 -185 -184 -185 -56 0 -93 14 -129 48 -42 40 -58
78 -58 137 0 63 17 101 66 143 33 29 47 36 100 45 26 4 85 -7 110 -20z"/>
<path d="M3740 1199 c-162 -18 -323 -127 -395 -269 -119 -235 -42 -519 180
-662 91 -60 176 -81 293 -76 115 6 173 24 263 84 143 94 222 245 222 419 0
167 -73 314 -205 411 -101 74 -229 107 -358 93z m162 -347 c36 -23 72 -78 83
-129 14 -70 -44 -174 -115 -203 -50 -21 -142 -9 -184 24 -125 95 -89 293 60
331 56 14 109 6 156 -23z"/>
</g>
</svg>
